<svg width="32" height="32" viewBox="0 0 32 32" fill="none" xmlns="http://www.w3.org/2000/svg">
    <g clip-path="url(#clip0_234_50)">
        <path
            d="M24.5 0H7.5C3.35786 0 0 3.35786 0 7.5V24.5C0 28.6421 3.35786 32 7.5 32H24.5C28.6421 32 32 28.6421 32 24.5V7.5C32 3.35786 28.6421 0 24.5 0Z"
            fill="#4353FF" />
        <path
            d="M21.1381 12.9295C21.1381 12.9295 19.4112 18.3398 19.2836 18.7991C19.2326 18.3483 17.9736 8.625 17.9736 8.625C15.0303 8.625 13.465 10.7176 12.6313 12.9295C12.6313 12.9295 10.5301 18.3567 10.36 18.8076C10.3515 18.3822 10.0367 12.9805 10.0367 12.9805C9.858 10.2668 7.3825 8.625 5.375 8.625L7.791 23.3503C10.8704 23.3418 12.5293 21.2576 13.3969 19.0374C13.3969 19.0374 15.2429 14.248 15.3195 14.0354C15.3365 14.2395 16.6465 23.3503 16.6465 23.3503C19.7345 23.3503 21.4019 21.4023 22.295 19.267L26.625 8.625C23.571 8.625 21.9632 10.7091 21.1381 12.9295Z"
            fill="white" />
    </g>
    <defs>
        <clipPath id="clip0_234_50">
            <rect width="32" height="32" fill="white" />
        </clipPath>
    </defs>
</svg>